<?xml version="1.0" standalone="no"?>
<!DOCTYPE svg PUBLIC "-//W3C//DTD SVG 20010904//EN"
 "http://www.w3.org/TR/2001/REC-SVG-20010904/DTD/svg10.dtd">
<svg version="1.0" xmlns="http://www.w3.org/2000/svg"
 width="132.000000pt" height="132.000000pt" viewBox="0 0 132.000000 132.000000"
 preserveAspectRatio="xMidYMid meet">
<metadata>
Created by potrace 1.11, written by Peter Selinger 2001-2013
</metadata>
<g transform="translate(0.000000,132.000000) scale(0.100000,-0.100000)"
fill="#000000" stroke="none">
<path d="M0 990 l0 -330 660 0 660 0 0 330 0 330 -660 0 -660 0 0 -330z m963
144 c119 -40 173 -193 104 -296 -92 -135 -301 -120 -368 27 -47 103 8 231 117
270 52 19 91 18 147 -1z m-452 -9 c156 -55 172 -271 26 -347 -34 -18 -63 -23
-154 -26 l-113 -4 0 196 0 196 99 0 c63 0 114 -6 142 -15z"/>
<path d="M841 1036 c-31 -17 -50 -53 -51 -94 0 -26 9 -43 34 -68 44 -44 83
-45 128 -5 28 25 33 36 33 76 0 40 -5 51 -33 76 -35 32 -72 37 -111 15z"/>
<path d="M380 945 l0 -95 44 0 c66 0 101 33 101 95 0 62 -35 95 -101 95 l-44
0 0 -95z"/>
<path d="M827 577 c-53 -17 -106 -63 -128 -111 -92 -202 174 -378 336 -222
114 109 65 293 -90 335 -49 13 -69 13 -118 -2z m125 -116 c28 -25 33 -36 33
-76 0 -40 -5 -51 -33 -76 -49 -44 -112 -35 -145 21 -61 103 57 209 145 131z"/>
<path d="M270 384 l0 -196 113 4 c97 3 118 7 157 28 113 63 133 212 40 301
-47 45 -100 59 -219 59 l-91 0 0 -196z m225 73 c18 -15 28 -36 32 -64 5 -37 2
-45 -25 -73 -25 -25 -39 -30 -76 -30 l-46 0 0 95 0 95 44 0 c32 0 52 -6 71
-23z"/>
</g>
</svg>
